<?xml version="1.0" standalone="no"?>
<!DOCTYPE svg PUBLIC "-//W3C//DTD SVG 20010904//EN"
 "http://www.w3.org/TR/2001/REC-SVG-20010904/DTD/svg10.dtd">
<svg version="1.0" xmlns="http://www.w3.org/2000/svg"
 width="231.000000pt" height="231.000000pt" viewBox="0 0 231.000000 231.000000"
 preserveAspectRatio="xMidYMid meet">
<metadata>
Created by potrace 1.11, written by Peter Selinger 2001-2013
</metadata>
<g transform="translate(0.000000,231.000000) scale(0.100000,-0.100000)"
fill="#000000" stroke="none">
<path d="M899 2154 c-86 -11 -196 -40 -214 -56 -5 -4 -14 -8 -21 -8 -26 0
-152 -81 -205 -132 -127 -122 -190 -265 -190 -436 0 -348 286 -685 696 -821
88 -29 112 -34 223 -50 59 -9 203 -7 272 3 144 22 311 95 404 178 148 131 218
294 209 483 -4 98 -24 177 -69 268 -57 119 -90 164 -189 262 -234 232 -591
352 -916 309z m430 -60 c245 -51 472 -244 536 -456 79 -261 -58 -500 -330
-573 -394 -107 -855 197 -871 575 -5 131 35 236 125 326 52 52 180 118 256
133 69 13 208 11 284 -5z"/>
<path d="M1217 2034 c-1 -1 -22 -5 -47 -9 -93 -14 -193 -78 -236 -151 -149
-255 95 -586 441 -600 221 -9 381 115 389 301 9 191 -155 386 -370 439 -51 13
-170 26 -177 20z"/>
<path d="M285 1871 c-195 -204 -289 -445 -281 -721 7 -228 75 -417 210 -586
210 -262 499 -398 836 -393 424 6 803 265 950 649 l21 55 -28 -35 c-124 -159
-330 -287 -542 -337 -100 -23 -106 -24 -215 -27 -423 -12 -809 216 -975 576
-62 134 -84 236 -83 378 1 149 52 325 126 438 19 28 33 52 31 52 -2 0 -24 -22
-50 -49z"/>
</g>
</svg>
